<?xml version="1.0" encoding="utf-8"?>
<!-- Generator: Adobe Illustrator 25.0.0, SVG Export Plug-In . SVG Version: 6.00 Build 0)  -->
<svg version="1.1" id="Warstwa_1" xmlns="http://www.w3.org/2000/svg" xmlns:xlink="http://www.w3.org/1999/xlink" x="0px" y="0px"
	 viewBox="0 0 566.93 566.93" style="enable-background:new 0 0 566.93 566.93;" xml:space="preserve">
<style type="text/css">
	.st0{opacity:0.93;}
	.st1{fill:#2D2E83;}
	.st2{fill:#FFFFFF;}
	.st3{fill:#2D2E83;stroke:#312783;stroke-miterlimit:10;}
	.st4{fill:#312783;}
</style>
<path class="st0" d="M566.93,283.46c0,156.56-126.91,283.47-283.47,283.47C126.91,566.93,0,440.02,0,283.46
	c0-53.31,14.72-103.18,40.31-145.78c0.51-0.85,1.02-1.69,1.54-2.53c16.45,32.8,31.78,58.48,42.95,76.18
	c20.59,32.6,26.94,37.82,41,64.6c15.7,29.91,12.95,33.25,29.81,62.73c12.72,22.25,31.68,50.74,31.68,50.93
	c-0.01,0-0.17,0.1-0.17,0.12c0.08,0.14,41.05-29.5,46.75-23.72c3.88,3.94-11.79,21.12-7.17,26.29c6.93,7.77,34.23-6.34,39.58-10.35
	c3.24,1.06,7.2,2.97,10.51,6.57c1.59,1.74,1.56,2.26,2.42,2.95c5.81,4.66,26.79-3.6,37.89-19.87c10.69-15.67,7.92-32.45,14.29-33.54
	c3.61-0.62,7.46,4.28,9.93,8.07c3.73-6.83,7.46-13.66,11.18-20.5l10.56,19.88c0,0,42.86-13.04,45.96-14.29
	c64.59-25.83,116.81-57.11,155.06-88.07C565.96,256.3,566.93,269.77,566.93,283.46z"/>
<path class="st1" d="M564.08,243.13L41.85,135.15C91.74,54.06,181.28,0,283.46,0C426.33,0,544.5,105.68,564.08,243.13z"/>
<path class="st2" d="M266.28,381.93c-0.47-0.15-0.92-0.29-1.35-0.41C267.56,380.49,267.73,380.84,266.28,381.93z"/>
<path class="st3" d="M564.08,243.13c-38.25,30.96-90.47,62.24-155.06,88.07c-3.1,1.25-45.96,14.29-45.96,14.29l-10.56-19.88
	c-3.72,6.84-7.45,13.67-11.18,20.5c-2.47-3.79-6.32-8.69-9.93-8.07c-6.37,1.09-3.6,17.87-14.29,33.54
	c-11.1,16.27-32.08,24.53-37.89,19.87c-0.86-0.69-0.83-1.21-2.42-2.95c-3.31-3.6-7.27-5.51-10.51-6.57
	c1.45-1.09,1.28-1.44-1.35-0.41c0.43,0.12,0.88,0.26,1.35,0.41c-5.35,4.01-32.65,18.12-39.58,10.35
	c-4.62-5.17,11.05-22.35,7.17-26.29c-5.7-5.78-46.67,23.86-46.75,23.72c0-0.02,0.16-0.12,0.17-0.12c0-0.19-18.96-28.68-31.68-50.93
	c-16.86-29.48-14.11-32.82-29.81-62.73c-14.06-26.78-20.41-32-41-64.6c-11.17-17.7-26.5-43.38-42.95-76.18L564.08,243.13z"/>
<path class="st2" d="M266.28,381.93c-0.47-0.15-0.92-0.29-1.35-0.41C267.56,380.49,267.73,380.84,266.28,381.93z"/>
<g>
	<g>
		<path class="st4" d="M266.79,380.91c3.22,0,3.22-5,0-5C263.57,375.91,263.57,380.91,266.79,380.91L266.79,380.91z"/>
	</g>
</g>
<g>
	<g>
		<path class="st4" d="M269.32,376c-0.82-0.12-1.65-0.24-2.47-0.36c0.5,0.38,1,0.77,1.49,1.15c-0.03-0.05-0.06-0.11-0.08-0.17
			c0.08,0.2,0.17,0.4,0.25,0.6c-0.06-0.14-0.1-0.28-0.12-0.43c0.03,0.22,0.06,0.44,0.09,0.66c-0.02-0.17-0.02-0.34,0-0.52
			c-0.03,0.22-0.06,0.44-0.09,0.66c0.03-0.17,0.08-0.34,0.14-0.5c-0.08,0.2-0.17,0.4-0.25,0.6c0.1-0.22,0.22-0.43,0.37-0.62
			c-0.13,0.17-0.26,0.34-0.39,0.51c0.16-0.19,0.33-0.36,0.53-0.52c-0.17,0.13-0.34,0.26-0.51,0.39c0.18-0.13,0.36-0.24,0.56-0.33
			c-0.2,0.08-0.4,0.17-0.6,0.25c0.2-0.08,0.4-0.14,0.61-0.18c-0.22,0.03-0.44,0.06-0.66,0.09c0.18-0.02,0.36-0.03,0.54-0.01
			c-0.22-0.03-0.44-0.06-0.66-0.09c0.18,0.02,0.36,0.07,0.53,0.14c-0.2-0.08-0.4-0.17-0.6-0.25c0.17,0.08,0.32,0.17,0.47,0.28
			c-0.17-0.13-0.34-0.26-0.51-0.39c0.14,0.11,0.26,0.23,0.37,0.37c-0.13-0.17-0.26-0.34-0.39-0.51c0.14,0.19,0.26,0.39,0.35,0.6
			c-0.08-0.2-0.17-0.4-0.25-0.6c0.1,0.25,0.17,0.51,0.2,0.77c-0.03-0.22-0.06-0.44-0.09-0.66c0.03,0.27,0.03,0.54,0,0.82
			c0.03-0.22,0.06-0.44,0.09-0.66c-0.04,0.3-0.12,0.59-0.23,0.88c0.08-0.2,0.17-0.4,0.25-0.6c-0.1,0.22-0.22,0.43-0.36,0.62
			c0.13-0.17,0.26-0.34,0.39-0.51c-0.13,0.17-0.28,0.31-0.44,0.45c0.17-0.13,0.34-0.26,0.51-0.39c-0.19,0.14-0.39,0.26-0.6,0.35
			c0.2-0.08,0.4-0.17,0.6-0.25c-0.25,0.1-0.51,0.17-0.78,0.22c0.22-0.03,0.44-0.06,0.66-0.09c-0.31,0.04-0.61,0.04-0.92,0
			c0.22,0.03,0.44,0.06,0.66,0.09c-0.35-0.05-0.68-0.14-1-0.27c0.2,0.08,0.4,0.17,0.6,0.25c-0.32-0.14-0.62-0.31-0.91-0.53
			c0.17,0.13,0.34,0.26,0.51,0.39c-0.25-0.2-0.47-0.42-0.67-0.66c0.13,0.17,0.26,0.34,0.39,0.51c-0.2-0.27-0.36-0.56-0.49-0.87
			c0.08,0.2,0.17,0.4,0.25,0.6c-0.13-0.33-0.22-0.67-0.27-1.02c0.03,0.22,0.06,0.44,0.09,0.66c-0.05-0.44-0.05-0.87,0.01-1.3
			c-0.03,0.22-0.06,0.44-0.09,0.66c0.07-0.48,0.2-0.94,0.39-1.39c-0.08,0.2-0.17,0.4-0.25,0.6c0.18-0.41,0.4-0.79,0.66-1.15
			c-0.13,0.17-0.26,0.34-0.39,0.51c0.23-0.29,0.48-0.56,0.77-0.79c-0.17,0.13-0.34,0.26-0.51,0.39c0.17-0.12,0.34-0.23,0.52-0.32
			c-0.2,0.08-0.4,0.17-0.6,0.25c0.19-0.08,0.37-0.13,0.57-0.16c-0.22,0.03-0.44,0.06-0.66,0.09c0.12-0.01,0.23-0.01,0.35,0
			c-0.22-0.03-0.44-0.06-0.66-0.09c0.15,0.02,0.28,0.05,0.42,0.1c-0.2-0.08-0.4-0.17-0.6-0.25c0.17,0.07,0.32,0.16,0.46,0.27
			c-0.17-0.13-0.34-0.26-0.51-0.39c0.14,0.12,0.27,0.25,0.38,0.4c-0.13-0.17-0.26-0.34-0.39-0.51c0.13,0.19,0.24,0.38,0.33,0.59
			c-0.08-0.2-0.17-0.4-0.25-0.6c0.08,0.21,0.14,0.43,0.17,0.66c-0.03-0.22-0.06-0.44-0.09-0.66c0.03,0.28,0.02,0.56-0.01,0.85
			c0.03-0.22,0.06-0.44,0.09-0.66c-0.1,0.75-0.37,1.44-0.66,2.13c0.08-0.2,0.17-0.4,0.25-0.6c-0.02,0.05-0.04,0.09-0.06,0.14
			c0.3-0.3,0.6-0.6,0.9-0.9c-0.07,0.06-0.14,0.1-0.23,0.14c0.2-0.08,0.4-0.17,0.6-0.25c-0.11,0.05-0.22,0.08-0.34,0.09
			c0.22-0.03,0.44-0.06,0.66-0.09c-0.12,0.01-0.23,0.01-0.35-0.01c0.22,0.03,0.44,0.06,0.66,0.09c-0.12-0.02-0.23-0.05-0.35-0.09
			c0.2,0.08,0.4,0.17,0.6,0.25c-0.11-0.05-0.21-0.11-0.31-0.17c0.17,0.13,0.34,0.26,0.51,0.39c-0.1-0.07-0.18-0.15-0.26-0.24
			c0.13,0.17,0.26,0.34,0.39,0.51c-0.07-0.1-0.13-0.19-0.18-0.3c0.08,0.2,0.17,0.4,0.25,0.6c-0.03-0.09-0.05-0.17-0.06-0.26
			c-0.08-0.2-0.17-0.4-0.25-0.6c-0.16-0.29-0.37-0.53-0.64-0.7c-0.42-0.33-0.97-0.56-1.51-0.54c-1.1,0.05-2.11,0.74-2.41,1.84
			c-0.4,1.44-0.2,3.12,0.67,4.36c0.38,0.54,0.84,0.97,1.49,1.15c0.6,0.16,1.4,0.09,1.93-0.25c1.06-0.68,1.7-2.28,0.9-3.42
			c-0.12-0.18-0.23-0.36-0.32-0.56c0.08,0.2,0.17,0.4,0.25,0.6c-0.1-0.24-0.16-0.48-0.2-0.74c0.03,0.22,0.06,0.44,0.09,0.66
			c-0.03-0.26-0.02-0.51,0.01-0.77c-0.03,0.22-0.06,0.44-0.09,0.66c0.02-0.13,0.05-0.25,0.08-0.37c-1.61,0-3.21,0-4.82,0
			c0.2,1.32,1.42,2.38,2.64,2.76c1.37,0.42,3.25,0.02,4-1.32c0.29-0.51,0.5-1.15,0.69-1.71c0.22-0.63,0.34-1.3,0.38-1.96
			c0.1-1.38-0.39-2.66-1.25-3.72c-0.78-0.95-2.03-1.54-3.27-1.51c-1.32,0.03-2.56,0.69-3.44,1.64c-1.4,1.5-2.3,3.67-2.12,5.74
			c0.18,2.19,1.25,4.21,3.23,5.29c1.82,0.99,4.11,1.15,5.93,0.07c3.66-2.15,3.37-8.28-0.84-9.61c-2.14-0.68-4.72,0.6-5.71,2.57
			c-0.54,1.07-0.79,2.38-0.34,3.53c0.27,0.69,0.59,1.24,1.23,1.66c0.42,0.27,0.9,0.3,1.37,0.36c0.57,0.08,1.13,0.16,1.7,0.25
			c0.69,0.1,1.3,0.12,1.93-0.25c0.52-0.3,1.01-0.9,1.15-1.49c0.15-0.64,0.11-1.36-0.25-1.93C270.48,376.64,269.94,376.09,269.32,376
			L269.32,376z"/>
	</g>
</g>
<g>
	<g>
		<path class="st1" d="M258.21,342.32c2.95,1.68,6.04,3.58,8.47,5.99c0.39,0.39,0.71,0.75,0.82,1.24c-0.05-0.25-0.06,0.14-0.03,0.08
			c0.12-0.21-0.24,0.31-0.09,0.14c0.07-0.08-0.22,0.21-0.27,0.25c-0.63,0.48-1.7,0.69-2.74,0.53c-2.19-0.33-4.32-2.06-4.92-4.24
			c-0.59-2.15,0.19-4.76,2.08-6.27c0.37-0.3,1.02-0.67,1.55-0.77c0.09-0.02,0.5,0.07,0.57,0.03c-0.03,0.01-0.47-0.44-0.11-0.04
			c-0.03-0.03-0.13-0.32-0.04-0.04c0.04,0.18,0.04,0.15,0-0.08c0,0.08,0,0.15-0.01,0.23c0.2-0.31,0.1-0.71,0.62-0.87
			c0.54-0.17,0.5,0.21,0.19-0.18c-0.23-0.28-0.52-0.51-0.74-0.81c-1.08-1.49-3.28-1.73-4.32,0c-1.68,2.82-1.69,6.28-0.1,9.14
			c0.96,1.73,4.25,1.59,4.57-0.6c0.52-3.56,1.79-6.81,3.84-9.77c-1.52-0.64-3.05-1.28-4.57-1.93c-0.14,0.84-0.15,0.94-0.54,1.59
			c-0.19,0.31,0.02,0.06-0.31,0.4c-0.21,0.22-0.42,0.43-0.66,0.62c0.22-0.18-0.49,0.32-0.58,0.37c-0.31,0.19-0.64,0.36-0.97,0.51
			c0.32-0.14-0.48,0.18-0.44,0.17c-0.36,0.13-0.72,0.23-1.09,0.33c-1.27,0.33-2.39,0.53-3.84,0.37c0.32,0.03-0.52-0.08-0.5-0.11
			c0.03-0.04,0.2,0.19,0.19,0.2c0.04,0.05,0.04,0.1,0.01,0.15c0.04-0.2,0.1-0.41,0.17-0.6c0.09-0.2,0.27-0.46,0.41-0.67
			c0.81-1.18,1.95-2.14,3.18-2.85c0.69-0.4,1.42-0.76,2.2-0.95c0.03-0.01,0.74-0.2,0.7-0.12c-0.26,0.03-0.46-0.08-0.59-0.31
			c0.12,0.17,0.22,0.35,0.31,0.54c0.56,1.25,0.75,3.12,0.52,4.53c-0.02,0.14-0.41,1.39-0.51,1.16c-0.15-0.33,1.1,0.51,0.74,0.18
			c0.73,0.67,0.18,1.5-0.68,1.86c-0.64-0.08-1.28-0.17-1.93-0.25c0.37,0.22,0.33,0.13-0.13-0.26c0.15,0.26,0.17,0.29,0.07,0.12
			c0.06,0.3,0.08,0.35,0.05,0.15c0.01,0.18,0.02,0.37,0.01,0.55c-0.02,0.31,0.01,0.2-0.13,0.59c0,0.01-0.32,0.58-0.32,0.59
			c-0.09-0.12,0.48-0.21,0.5-0.21c0.43,0,0.76,0.18,1,0.53c0.08,0.11,0.12,0.24,0.12,0.38c-0.01,0.06-0.02,0.13-0.04,0.19
			c0.08-0.29,0.09-0.31,0.02-0.05c0.6-0.69-0.72,0.81-0.65,0.45c0.03-0.18,0.42,0.41,0.48,0.65c0.16,0.63-0.02,1.39-0.23,1.99
			c-0.36,1.04-1.14,1.99-2.11,2.28c1.05,0.8,2.11,1.61,3.16,2.41c0.55-5.01,2.09-9.91,4.42-14.36c-1.44,0-2.88,0-4.32,0
			c0.73,1.45,0.62,3.26-0.29,4.68c-0.3,0.47-0.97,1.14-1.35,1.25c-0.45,0.13-0.96-0.22-1.31-0.7c-1.22-1.68-0.24-4.25,0.37-6.08
			c0.05-0.16,0.31-1,0.41-0.97c0.27,0.08-0.64,0.28-0.64,0.28c0.05-0.11,0.18,0.6,0.19,0.67c0.07,0.59-0.02,1.25-0.06,1.83
			c-0.13,1.79,2.27,3.26,3.76,2.16c1.28-0.94,2.11-2.12,3.19-3.24c0.31-0.32,0.55-0.51,0.88-0.6c0.07-0.02,0.21-0.03,0.22-0.03
			c-0.01-0.01-0.76-0.4-0.53-0.35c-0.2-0.04,0.2-0.28-0.08,0.06c-0.12,0.14-0.22,0.62-0.31,0.81c-0.29,0.59-0.67,1.16-1.05,1.7
			c-0.64,0.91-1.41,1.76-2.39,2.29c-1.4,0.76-3.28,0.69-3.59-1.24c-0.16-0.96,0.02-2.23,0.21-3.26c0.09-0.52,0.17-1.13,0.41-1.55
			c-0.1,0.19,0.06-0.08,0.09-0.06c-0.15-0.07-0.58,0.08-0.81-0.15c2.27,2.29,5.8-1.25,3.54-3.54c-1.45-1.46-3.71-1.59-5.44-0.53
			c-1.75,1.08-2.38,3.07-2.68,4.98c-0.58,3.63-0.56,8.06,3.26,9.96c3.4,1.69,7.29,0.5,9.88-2.08c2.42-2.42,5.58-7.13,2.95-10.4
			c-1.52-1.88-4.05-1.95-6.11-0.99c-0.89,0.42-1.65,1.08-2.3,1.82c-0.59,0.67-1.11,1.55-1.83,2.08c1.25,0.72,2.51,1.44,3.76,2.16
			c0.13-1.72,0.09-3.54-0.83-5.06c-0.87-1.44-2.55-2.5-4.26-2.47c-3.84,0.08-5.06,4.79-5.54,7.86c-0.51,3.35,0.33,6.98,3.45,8.81
			c3.18,1.87,6.66,0.23,8.63-2.52c2.11-2.95,2.14-6.94,0.55-10.11c-0.83-1.65-3.48-1.61-4.32,0c-2.77,5.29-4.45,10.96-5.1,16.89
			c-0.18,1.61,1.74,2.85,3.16,2.41c3.77-1.17,6.33-5.15,6.04-9.08c-0.18-2.35-1.38-4.41-3.62-5.29c-1.95-0.77-4.43-0.23-5.55,1.65
			c-0.98,1.66-0.9,4.01,0.55,5.39c1.64,1.55,4.2,1.34,5.73-0.24c1.31-1.35,1.97-3.33,1.86-5.19c-0.12-2.01-1.34-4.67-3.72-4.67
			c-2.41,0-3.74,2.79-3.17,4.87c0.61,2.22,3,3.34,5.16,2.77c4.62-1.23,4.7-7.38,3.64-11.09c-0.63-2.21-1.93-4.31-4.42-4.56
			c-1.97-0.19-4.09,0.74-5.77,1.71c-3.13,1.81-7.05,5.61-6.07,9.62c1.12,4.59,7.45,3.91,10.86,2.88c3.49-1.06,6.9-3.5,7.53-7.32
			c0.45-2.78-2.9-4.34-4.57-1.93c-2.26,3.26-3.77,7.04-4.35,10.96c1.52-0.2,3.05-0.4,4.57-0.6c-0.74-1.32-0.67-2.79,0.1-4.09
			c-1.44,0-2.88,0-4.32,0c1.67,2.3,4.48,4.61,7.38,2.75c2.36-1.51,2.36-5.01,0.57-6.95c-1.96-2.14-5.23-1.84-7.56-0.53
			c-2.19,1.23-3.75,3.31-4.65,5.62c-1.89,4.83,0.09,10.2,4.39,12.96c3.93,2.52,10.92,2.52,12.79-2.63c1.17-3.22-1.11-5.89-3.45-7.78
			c-2.52-2.03-5.17-3.87-7.99-5.48C257.94,336.4,255.41,340.72,258.21,342.32L258.21,342.32z"/>
	</g>
</g>
</svg>
